# xmcd
#
# Track frame offsets:
#	150
#	13750
#	26462
#	47260
#	61360
#	76190
#	92637
#	106812
#	120667
#	136360
#	153400
#	167140
#	178892
#	196190
#
# Disc length: 2827
#
# Revision: 1
# Processed by: cddbd v1.5.1PL0 Copyright (c) Steve Scherf et al.
# Submitted via: VisiTrax 2.9.3.171 - For more info visit www.synapsa.com
# Normalized: r0:DSETVAR1
#
DISCID=a90b090e
DTITLE=Various Artist - Mr Music Country 11-98
DYEAR=1900
DGENRE=
TTITLE0=Gary Allan - It Took Us All Night Long To Say Goodbye
TTITLE1=Reba McEntire - Wrong Night
TTITLE2=George Jones - Wild Irish Rose
TTITLE3=Dolly Parton - Paradise Road
TTITLE4=Aaron Baker and Curtis Wayne - All The Sleep I Need
TTITLE5=Kris Tyler - Kind Of Like California
TTITLE6=Shane Stockton - Billy Saw The Light
TTITLE7=Vince Gill - Kindly Keep It Country
TTITLE8=Trisha Yearwood - One More Chance
TTITLE9=Keith Harling - I Never Go Around Mirrors
TTITLE10=Raybon Brothers - The Way She's Looking
TTITLE11=Ramblin' Eddy - It's Hard To Know You're Gone
TTITLE12=Allison Moorer - A Soft Place To Fall
TTITLE13=Tracy Byrd - I'm From The Country
EXTD=
EXTT0=
EXTT1=
EXTT2=
EXTT3=
EXTT4=
EXTT5=
EXTT6=
EXTT7=
EXTT8=
EXTT9=
EXTT10=
EXTT11=
EXTT12=
EXTT13=
PLAYORDER=
